<?xml version="1.0" encoding="UTF-8"?>
<!DOCTYPE svg PUBLIC "-//W3C//DTD SVG 1.1//EN" "http://www.w3.org/Graphics/SVG/1.1/DTD/svg11.dtd">
<!-- Creator: CorelDRAW X7 -->
<svg xmlns="http://www.w3.org/2000/svg" xml:space="preserve" width="2.33333in" height="1.33333in" version="1.1" style="shape-rendering:geometricPrecision; text-rendering:geometricPrecision; image-rendering:optimizeQuality; fill-rule:evenodd; clip-rule:evenodd"
viewBox="0 0 2333 1333"
 xmlns:xlink="http://www.w3.org/1999/xlink">
 <defs>
  <style type="text/css">
   <![CDATA[
    .str6 {stroke:#FEFEFE;stroke-width:6.94488}
    .str4 {stroke:#E6E7E8;stroke-width:6.94488}
    .str1 {stroke:#D2D3D5;stroke-width:6.94488}
    .str5 {stroke:#373435;stroke-width:6.94488}
    .str2 {stroke:#333131;stroke-width:6.94488}
    .str0 {stroke:#2A324C;stroke-width:6.94488}
    .str8 {stroke:#151F31;stroke-width:6.94488}
    .str3 {stroke:#34495E;stroke-width:6.94488}
    .str7 {stroke:#ECF0F1;stroke-width:6.94488}
    .str9 {stroke:#E6E7E8;stroke-width:3}
    .str10 {stroke:#201E1E;stroke-width:3}
    .fil2 {fill:none}
    .fil3 {fill:#FEFEFE}
    .fil0 {fill:#FEFEFE}
    .fil6 {fill:#E6E7E8}
    .fil1 {fill:#D2D3D5}
    .fil7 {fill:#2A324C}
    .fil5 {fill:#34495E}
    .fil8 {fill:#ECF0F1}
    .fil9 {fill:#D2D3D5;fill-rule:nonzero}
    .fil4 {fill:#ECF0F1;fill-rule:nonzero}
    .fil11 {fill:url(#id2)}
    .fil13 {fill:url(#id3)}
    .fil12 {fill:url(#id4)}
    .fil10 {fill:url(#id5)}
   ]]>
  </style>
     <clipPath id="id0">
      <path d="M1442 654l953 0 0 665 -953 0 0 -665z"/>
     </clipPath>
    <clipPath id="id1">
     <rect x="1446" y="660" width="916" height="628"/>
    </clipPath>
  <radialGradient id="id2" gradientUnits="userSpaceOnUse" gradientTransform="matrix(0.580703 0.725284 -0.567539 0.742107 447 -8)" cx="231.161" cy="617.209" r="160.311" fx="231.161" fy="617.209">
   <stop offset="0" style="stop-opacity:1; stop-color:#363645"/>
   <stop offset="1" style="stop-opacity:1; stop-color:#3A506A"/>
  </radialGradient>
  <radialGradient id="id3" gradientUnits="userSpaceOnUse" gradientTransform="matrix(0.374554 8.19833 -2.26214 0.168736 924 -1119)" cx="173.039" cy="360.752" r="40.563" fx="173.039" fy="360.752">
   <stop offset="0" style="stop-opacity:1; stop-color:#FEFEFE"/>
   <stop offset="1" style="stop-opacity:1; stop-color:#7878B7"/>
  </radialGradient>
  <radialGradient id="id4" gradientUnits="userSpaceOnUse" gradientTransform="matrix(0.103829 2.27301 -0.629567 0.0469859 383 -48)" xlink:href="#id3" cx="172.89" cy="361.827" r="146.303" fx="172.89" fy="361.827">
  </radialGradient>
  <radialGradient id="id5" gradientUnits="userSpaceOnUse" gradientTransform="matrix(0.610105 0.484784 -0.379346 0.779681 233 -26)" cx="226.736" cy="380.819" r="160.311" fx="226.736" fy="380.819">
   <stop offset="0" style="stop-opacity:1; stop-color:#2B2C30"/>
   <stop offset="1" style="stop-opacity:1; stop-color:#363645"/>
  </radialGradient>
 </defs>
 <g id="Layer_x0020_1">
  <metadata id="CorelCorpID_0Corel-Layer"/>
  <g id="_1988971840544">
   <rect class="fil0 str0" x="373" y="32" width="1529" height="1117"/>
   <rect class="fil1 str1" x="756" y="1115" width="17.6548" height="21.3451"/>
   <polyline class="fil2 str2" points="762,1122 764,1128 767,1122 "/>
   <rect class="fil1 str1" x="756" y="175" width="17.6548" height="21.3451"/>
   <rect class="fil3 str0" x="773" y="164" width="1129" height="857"/>
   <g>
    <path class="fil4" d="M777 256c-2,0 -4,-2 -4,-4 0,-3 2,-5 4,-5l0 9zm1123 0l-1123 0 0 -9 1123 0 0 9zm0 -9c2,0 4,2 4,5 0,2 -2,4 -4,4l0 -9z"/>
   </g>
   <rect class="fil5 str3" x="373" y="164" width="382" height="985"/>
   <rect class="fil6 str4" x="412" y="279" width="267.579" height="62.8359" rx="22" ry="18"/>
   <rect class="fil6 str4" x="412" y="451" width="267.579" height="62.8359" rx="22" ry="18"/>
   <rect class="fil6 str4" x="412" y="620" width="267.579" height="62.8359" rx="22" ry="18"/>
   <rect class="fil6 str4" x="412" y="794" width="267.579" height="62.8359" rx="22" ry="18"/>
   <line class="fil2 str5" x1="2199" y1="383" x2="2199" y2= "646" />
   <polyline class="fil2 str2" points="762,189 764,183 767,189 "/>
   <ellipse class="fil7 str0" cx="1827" cy="93" rx="2" ry="4"/>
   <ellipse class="fil7 str0" cx="1827" cy="107" rx="2" ry="4"/>
   <ellipse class="fil7 str0" cx="1827" cy="121" rx="2" ry="4"/>
   <rect class="fil3 str6" x="778" y="879" width="1126" height="190"/>
   <polygon class="fil8 str7" points="834,296 1016,296 1081,371 834,371 "/>
   <polygon class="fil5 str3" points="1081,296 1263,296 1329,371 1081,371 "/>
   <polygon class="fil5 str3" points="1331,296 1513,296 1579,371 1331,371 "/>
   <polygon class="fil5 str3" points="1578,296 1760,296 1826,371 1578,371 "/>
   <g>
    <path class="fil4" d="M832 516c-2,0 -3,-2 -3,-5 0,-3 1,-5 3,-5l0 10zm994 0l-994 0 0 -10 994 0 0 10zm0 -10c2,0 3,2 3,5 0,3 -1,5 -3,5l0 -10z"/>
   </g>
   <g>
    <path class="fil4" d="M1802 419l-946 0 0 -10 946 0 0 0 0 10zm27 19l-6 0 0 0 0 -1 0 -1 -1 -1 0 -1 0 0 0 -1 0 -1 -1 -1 0 -1 0 -1 -1 0 0 -1 -1 -1 -1 -1 0 0 -1 -1 -1 -1 0 0 -1 -1 -1 -1 -1 0 -1 -1 -1 0 -1 -1 -1 0 -1 0 -1 -1 -1 0 -1 0 -1 0 -1 0 -1 0 0 -10 1 0 2 0 1 0 1 1 1 0 2 0 1 1 1 0 1 1 1 0 2 1 1 1 1 0 1 1 1 1 1 1 1 1 0 1 1 1 1 1 1 1 0 1 1 2 1 1 0 1 1 2 0 1 0 1 1 2 0 2 0 1 0 2 0 0zm-6 299l0 -299 6 0 0 299 0 0 -6 0zm-21 29l0 -10 0 0 1 0 1 0 1 0 1 0 1 0 1 -1 1 0 1 0 1 -1 1 0 1 -1 1 0 1 -1 1 0 0 -1 1 -1 1 0 0 -1 1 -1 1 -1 0 -1 1 0 0 -1 0 -1 1 -1 0 -1 0 0 0 -1 0 -1 1 -1 0 -1 0 -1 6 0 0 2 0 2 0 1 -1 2 0 1 0 2 -1 1 0 1 -1 2 -1 1 0 1 -1 1 -1 1 -1 1 0 1 -1 1 -1 1 -1 1 -1 1 -1 1 -1 0 -2 1 -1 1 -1 0 -1 1 -1 0 -2 0 -1 1 -1 0 -1 0 -2 0 -1 0 0 0zm-946 -10l946 0 0 10 -946 0 0 0 0 -10zm-27 -19l6 0 0 0 0 1 0 1 0 1 1 1 0 1 0 0 0 1 1 1 0 1 0 1 1 0 0 1 1 1 0 1 1 1 1 0 0 1 1 1 1 0 1 1 1 0 1 1 1 0 0 1 1 0 1 0 1 1 2 0 1 0 1 0 1 0 1 0 0 10 -1 0 -2 0 -1 0 -1 0 -2 -1 -1 0 -1 0 -1 -1 -1 0 -2 -1 -1 -1 -1 0 -1 -1 -1 -1 -1 -1 -1 -1 -1 -1 -1 -1 0 -1 -1 -1 -1 -1 -1 -1 0 -1 -1 -2 0 -1 -1 -1 0 -2 -1 -1 0 -2 0 -1 0 -2 0 -2 0 0zm6 -299l0 299 -6 0 0 -299 0 0 6 0zm21 -29l0 10 0 0 -1 0 -1 0 -1 0 -1 0 -2 0 -1 1 -1 0 -1 0 0 1 -1 0 -1 1 -1 0 -1 1 -1 1 -1 0 0 1 -1 1 -1 0 0 1 -1 1 0 1 -1 0 0 1 0 1 -1 1 0 1 0 1 0 0 -1 1 0 1 0 1 0 1 -6 0 0 -2 0 -1 0 -2 0 -2 1 -1 0 -1 1 -2 0 -1 1 -1 0 -2 1 -1 1 -1 1 -1 0 -1 1 -1 1 -1 1 -1 1 -1 1 -1 1 0 1 -1 1 -1 2 0 1 -1 1 0 1 -1 1 0 2 0 1 -1 1 0 2 0 1 0 0 0z"/>
   </g>
   <g>
    <path class="fil9" d="M1051 472l-1 -1c0,0 0,0 0,0 1,0 1,1 1,1zm-49 -3l0 0 0 -1 1 0 1 0 1 0 1 0 1 0 1 0 2 0 2 0 1 0 2 1 2 0 2 0 3 1 2 0 2 0 2 1 2 0 2 0 2 0 2 1 2 0 2 0 2 0 2 0 1 0 1 0 1 0 1 0 1 0 1 0 0 -1 1 1 -1 1 -1 0 0 1 -1 0 -2 0 -1 0 -1 0 -2 0 -2 0 -2 0 -2 -1 -2 0 -2 0 -2 -1 -2 0 -2 0 -2 -1 -3 0 -2 0 -2 -1 -2 0 -2 0 -1 0 -2 -1 -2 0 -1 0 -1 0 -1 0 -1 0 -1 0 0 0 0 0 0 0 -1 0zm-1 11l0 0 0 1 1 0 0 0 0 0 1 1 0 0 0 0 0 0 0 0 0 0 0 0 0 1 0 0 0 -1 0 0 0 0 0 -1 -1 0 0 -1 0 0 0 -1 0 0 0 -1 0 -1 0 -1 0 -1 0 -1 0 -1 0 -1 0 -1 0 -1 0 -1 1 0 0 1 0 1 0 1 0 1 0 1 0 1 0 1 0 1 0 1 0 0 0 1 0 0 0 1 0 0 1 1 0 0 0 1 0 0 0 0 0 1 0 0 -1 0 0 1 0 0 0 -1 -1 0 0 0 0 0 0 0 -1 -1 0 0 -1 0 0 0 1 -2zm-40 -2l0 0 2 -2 1 -2 2 -1 2 -1 1 -2 2 -1 1 0 2 -1 1 0 1 -1 2 0 1 0 1 0 2 0 1 0 1 1 1 0 1 1 2 0 1 1 1 1 1 1 1 0 1 1 1 1 1 1 1 1 1 1 1 1 1 1 1 0 1 1 -1 2 -1 -1 -1 -1 -1 -1 -1 -1 -1 -1 -1 -1 -1 0 -1 -1 -1 -1 -1 -1 -1 -1 -1 0 -1 -1 -1 -1 -1 0 -1 -1 -1 0 -2 0 -1 0 -1 0 -1 0 -2 0 -1 0 -1 1 -2 0 -1 1 -2 1 -1 1 -2 1 -1 2 -2 1 -1 2 0 0 -1 -1zm-28 13l-1 0 2 -5 1 -4 1 -3 1 -3 0 -3 1 -1 1 -2 1 -1 0 0 1 0 1 0 0 1 1 1 0 1 1 1 0 1 0 2 1 1 1 1 0 2 1 1 1 1 0 1 1 1 1 0 1 1 1 -1 2 0 1 -1 2 -1 2 -2 2 -2 1 1 -3 3 -1 1 -2 2 -2 1 -1 0 -2 0 -1 0 -1 -1 -1 -1 -1 -1 -1 -1 -1 -1 0 -2 -1 -1 0 -2 -1 -1 0 -1 -1 -1 0 -1 -1 -1 0 -1 0 0 0 0 -1 1 0 0 -1 1 -1 2 0 2 -1 3 -1 4 -1 4 -2 5 -1 -1 1 0zm-1 0l1 1c0,0 0,0 0,0 -1,0 -1,-1 -1,-1zm-20 -13l0 0 2 2 2 1 1 1 2 0 1 -1 1 0 1 -2 2 -1 1 -2 1 -2 1 -3 1 -2 1 -2 1 -3 0 -2 1 -2 1 -2 0 -2 1 -1 0 -2 0 0 1 -1 1 1 0 1 0 2 0 2 0 4 0 4 -1 5 0 5 0 7 -1 8 -1 0 1 -8 0 -7 0 -6 1 -4 0 -4 0 -4 0 -2 0 -2 0 0 0 0 0 0 0 0 -1 1 0 2 -1 1 0 2 -1 3 -1 2 0 2 -1 3 -1 2 -1 3 -1 2 -2 2 -1 2 -1 1 -2 1 -1 0 -2 0 -2 0 -2 -1 -2 -2 0 0 1 -2zm-7 -14l0 0 0 1 0 1 1 0 0 1 0 0 0 1 1 1 0 0 0 1 0 0 0 1 1 0 0 1 0 0 0 0 1 1 0 0 0 1 0 0 1 1 0 0 0 0 0 1 0 0 1 0 0 1 0 0 0 0 1 0 0 1 0 0 0 0 -1 2 0 -1 0 0 0 0 0 -1 -1 0 0 0 0 -1 0 0 -1 0 0 -1 0 0 0 0 0 -1 -1 0 0 -1 0 0 0 -1 -1 0 0 0 0 -1 0 0 -1 -1 0 0 0 -1 0 -1 -1 0 0 -1 0 0 0 -1 -1 0 0 -1 0 -1 0 0 1 -1zm-9 17l0 0 0 0 0 0 1 -1 0 0 0 -1 1 0 0 -1 0 0 1 -1 0 -1 0 -1 1 -1 0 0 0 -1 1 -1 0 -1 0 -1 0 -1 1 0 0 -1 0 -1 0 -1 0 0 1 -1 0 0 0 -1 0 0 1 0 0 0 0 0 1 0 0 0 -1 1 0 0 0 0 0 0 0 0 0 0 0 0 0 1 0 0 -1 1 0 0 0 1 0 1 0 0 -1 1 0 1 0 1 0 1 -1 0 0 1 0 1 -1 1 0 1 0 1 -1 0 0 1 0 1 -1 1 0 0 -1 1 0 0 0 1 -1 0 0 0 0 -2zm-13 -22l0 0 0 -1 1 0 0 -1 1 0 0 0 0 1 1 0 0 1 0 1 0 1 1 1 0 1 1 1 0 1 0 2 1 1 0 1 1 1 0 2 1 1 0 1 1 1 0 2 1 1 0 1 0 0 1 1 0 1 1 0 0 0 0 0 1 0 0 2 -1 0 0 0 -1 -1 0 0 -1 -1 0 -1 -1 0 0 -1 -1 -1 0 -2 -1 -1 0 -1 -1 -1 0 -2 -1 -1 0 -1 -1 -2 0 -1 0 -1 -1 -1 0 -2 0 -1 -1 0 0 -1 0 -1 -1 0 0 0 0 0 0 0 1 -1 -1 1 0 0 0 0 -1 0zm-12 7l-2 2 0 1 -1 2 -1 1 0 2 0 1 0 1 0 1 0 1 0 1 1 1 0 1 1 1 0 0 1 1 1 0 1 0 1 0 0 0 1 0 1 -1 1 -1 1 -1 1 -1 1 -1 1 -2 1 -2 0 -2 1 -3 1 -3 0 -3 0 -4 1 0 0 4 0 3 -1 3 -1 3 0 3 -1 2 -1 2 -1 1 -1 2 -1 1 -1 1 -1 0 -1 1 -1 0 -1 0 -1 0 -1 -1 -1 0 -1 -1 -1 -1 0 -1 -1 -1 0 -1 0 -1 0 -2 0 -1 0 -2 0 -1 1 -2 1 -2 1 -1 1 -2 1 1zm0 0l-1 -1c0,0 0,0 1,0 0,1 0,1 0,1z"/>
   </g>
   <g>
    <path class="fil9" d="M1421 666l-1 -1c1,0 1,0 1,0 0,0 0,0 0,1zm-48 -3l0 0 0 -1 1 -1 1 0 0 0 1 0 2 0 1 0 2 0 1 1 2 0 2 0 2 0 2 1 2 0 2 0 3 1 2 0 2 0 2 1 2 0 2 0 2 1 2 0 2 0 1 0 2 0 1 0 1 0 1 0 1 -1 0 0 0 0 1 1 0 1 -1 0 -1 0 -1 0 -1 1 -1 0 -2 0 -1 -1 -2 0 -2 0 -2 0 -2 0 -2 -1 -2 0 -2 0 -2 -1 -3 0 -2 0 -2 -1 -2 0 -2 0 -2 0 -2 -1 -1 0 -2 0 -1 0 -2 0 -1 0 0 0 -1 0 0 0 0 0 0 0 -1 0zm-2 11l0 0 1 0 0 1 1 0 0 0 0 0 1 0 0 1 0 0 0 0 0 0 0 0 0 0 0 0 0 0 0 0 -1 -1 0 0 0 0 0 -1 0 -1 0 0 0 -1 0 -1 0 0 0 -1 0 -1 0 -1 0 -1 0 -1 0 -1 0 -1 0 -1 1 0 0 1 0 1 0 1 0 1 0 1 0 1 0 1 0 0 0 1 0 1 0 1 0 0 0 1 0 0 0 1 0 0 1 0 0 1 0 0 0 0 0 1 -1 0 0 0 0 0 -1 0 0 0 0 0 0 0 -1 -1 0 0 -1 0 0 -1 0 0 0 -1zm-39 -2l0 0 1 -2 2 -2 2 -2 1 -1 2 -1 1 -1 2 -1 1 0 2 -1 1 0 2 0 1 0 1 0 1 0 2 0 1 0 1 1 1 0 1 1 2 1 1 1 1 0 1 1 1 1 1 1 1 1 1 1 1 0 1 1 1 1 1 1 0 1 0 1 -1 -1 -1 0 -1 -1 -1 -1 -1 -1 -1 -1 -1 -1 -1 -1 -1 0 -1 -1 -1 -1 -1 -1 -1 0 -1 -1 -1 -1 -1 0 -2 0 -1 -1 -1 0 -1 0 -1 0 -2 0 -1 1 -1 0 -2 1 -1 1 -2 0 -1 2 -2 1 -1 1 -2 2 -2 2 0 0 0 -1zm-28 13l-1 0 1 -5 2 -4 1 -4 0 -3 1 -2 1 -2 1 -1 0 -1 1 -1 1 0 0 1 1 0 0 1 1 1 0 2 1 1 0 1 1 2 0 1 1 1 1 2 0 1 1 1 1 0 1 1 1 0 1 0 2 0 1 -1 2 -1 2 -2 2 -2 0 1 -2 2 -2 2 -1 1 -2 1 -2 1 -1 0 -1 -1 -1 0 -1 -1 -1 -1 -1 -1 -1 -2 -1 -1 0 -2 -1 -1 0 -1 -1 -2 0 -1 0 -1 -1 -1 0 0 0 0 -1 0 0 0 0 1 -1 1 -1 2 -1 2 0 3 -1 3 -2 4 -1 5 -1 0 1 0zm-1 0l1 0c0,1 0,1 0,1 -1,-1 -1,-1 -1,-1zm-20 -13l0 0 2 2 1 1 2 0 1 0 2 0 1 -1 1 -1 1 -2 2 -2 1 -2 1 -2 1 -2 1 -3 0 -2 1 -2 1 -3 0 -2 1 -1 0 -2 1 -1 0 -1 1 0 0 1 1 1 0 2 0 2 0 3 -1 4 0 5 0 6 0 7 -1 8 -1 0 1 -8 0 -7 0 -6 0 -5 1 -4 0 -3 0 -2 0 -2 -1 -1 1 0 0 0 0 1 -1 1 0 1 -1 2 0 2 -1 2 -1 3 -1 2 0 3 -1 2 -1 2 -2 2 -1 2 -1 2 -1 2 -2 1 -2 0 -1 0 -2 -1 -2 -1 -2 -2 0 0 1 -1zm-7 -14l0 0 0 1 0 0 0 1 1 1 0 0 0 1 0 0 1 1 0 0 0 1 0 0 0 1 1 0 0 1 0 0 0 1 1 0 0 0 0 1 0 0 1 0 0 1 0 0 0 1 0 0 1 0 0 0 0 1 0 0 1 0 0 1 0 0 -1 1 0 0 0 0 0 -1 -1 0 0 0 0 -1 0 0 -1 0 0 -1 0 0 0 0 0 -1 -1 0 0 -1 0 0 0 0 -1 -1 0 0 0 -1 0 0 -1 -1 0 0 0 -1 0 0 -1 -1 0 0 0 -1 0 -1 -1 0 0 -1 0 0 0 -1 0 0 1 -1zm-9 17l0 0 0 0 0 -1 1 0 0 0 0 -1 1 0 0 -1 0 -1 1 -1 0 0 0 -1 1 -1 0 -1 0 -1 0 -1 1 0 0 -1 0 -1 0 -1 1 -1 0 0 0 -1 0 -1 0 0 1 -1 0 0 0 0 0 -1 1 0 0 0 0 1 1 0 -1 1 0 0 0 0 0 0 0 0 0 0 0 0 0 0 -1 1 0 0 0 1 0 0 0 1 -1 1 0 1 0 0 0 1 -1 1 0 1 0 1 -1 1 0 1 0 0 -1 1 0 1 0 1 -1 1 0 0 0 1 -1 0 0 1 -1 0 0 0 0 0 0 -1zm-13 -22l0 0 0 -1 0 -1 1 0 0 0 1 0 0 0 0 1 1 1 0 0 0 1 1 1 0 1 0 2 1 1 0 1 1 1 0 2 0 1 1 1 0 2 1 1 0 1 1 1 0 1 1 1 0 1 1 1 0 0 1 1 0 0 0 0 1 0 0 1 -1 1 0 -1 -1 0 0 0 -1 -1 -1 -1 0 -1 -1 -1 0 -1 -1 -1 0 -1 -1 -2 0 -1 0 -1 -1 -2 0 -1 -1 -1 0 -1 -1 -2 0 -1 0 -1 -1 -1 0 -1 0 -1 -1 0 0 -1 0 0 0 0 0 0 0 0 0 0 0 1 0 0 -1 0zm-13 7l-1 1 -1 2 0 1 -1 2 0 1 0 2 -1 1 1 1 0 1 0 1 0 1 1 1 1 1 0 0 1 1 1 0 1 0 0 0 1 0 1 -1 1 0 1 -1 1 -1 1 -1 1 -2 1 -1 0 -2 1 -3 1 -2 0 -3 1 -4 0 -3 1 0 0 4 -1 3 0 3 -1 3 -1 2 0 2 -1 2 -1 2 -1 1 -1 1 -1 1 -1 1 -1 0 -2 1 -1 0 -1 -1 0 0 -1 0 -1 -1 -1 -1 0 -1 -1 -1 0 -1 0 -2 -1 -1 1 -2 0 -1 0 -2 1 -1 1 -2 1 -2 1 -1 0 1zm0 0l0 -1c0,-1 0,-1 0,0 1,0 1,1 0,1z"/>
   </g>
   <g>
    <g style="clip-path:url(#id0)">
     <image x="1442" y="654" width="954" height="665" xlink:href="pastor_Images\pastor_ImgID1.png"/>
    </g>
   </g>
   <g style="clip-path:url(#id1)">
    <image x="1446" y="660" width="916" height="628" xlink:href="pastor_Images\pastor_ImgID2.png"/>
   </g>
   <line class="fil2 str5" x1="2200" y1="386" x2="1945" y2= "386" />
   <line class="fil2 str5" x1="1945" y1="255" x2="1945" y2= "517" />
   <line class="fil2 str5" x1="1924" y1="330" x2="1924" y2= "435" />
   <rect class="fil3 str6" x="1293" y="1069" width="151" height="135"/>
   <line class="fil2 str8" x1="1293" y1="1096" x2="1293" y2= "1201" />
   <line class="fil2 str8" x1="1445" y1="1145" x2="1313" y2= "1145" />
   <path class="fil6 str9" d="M1137 1197l157 0 0 5 -157 0c-8,0 -15,12 -15,26l0 0c0,14 7,26 15,26l67 0c0,0 1,0 1,0l56 0 0 0 157 0c10,0 18,14 18,31l0 0c0,17 -8,31 -18,31l-385 0 0 0 -364 0c-11,0 -19,-14 -19,-31l0 0c0,-17 8,-31 19,-31l156 0 0 0 57 0c0,0 0,0 1,0l146 0c8,0 15,-12 15,-26l0 0c0,-14 -7,-26 -15,-26l-236 0 0 -5 236 0c10,0 18,14 18,31l0 0c0,17 -8,31 -18,31l-236 0 0 0 -124 0c-9,0 -15,11 -15,26l0 0c0,14 6,25 15,25l67 0c0,0 0,0 0,0l317 0 0 0 297 0c0,0 1,0 1,0l67 0c8,0 15,-11 15,-25l0 0c0,-15 -7,-26 -15,-26l-124 0 0 0 -157 0c-10,0 -19,-14 -19,-31l0 0c0,-17 9,-31 19,-31z"/>
   <rect class="fil2 str4" x="657" y="1184" width="139.511" height="29.3925" rx="12" ry="15"/>
   <line class="fil2 str4" x1="305" y1="1198" x2="657" y2= "1198" />
   <path class="fil10" d="M155 1306l-3 -314 0 0 -1 -186c0,-11 -10,-19 -21,-19l0 0c-12,0 -21,9 -21,20l1 85c0,0 0,1 0,1l0 72 0 0 2 201c0,13 -11,23 -25,24l0 0c-14,0 -25,-11 -25,-24l-4 -491 4 0 3 405c0,0 0,0 0,1l1 85c0,11 10,19 21,19l0 0c12,0 21,-9 21,-20l-1 -158 -1 0 -1 -200c0,-13 11,-24 25,-25l0 0c13,0 25,11 25,24l2 200 0 0 2 299c0,17 9,31 21,31l0 0c11,0 21,-14 20,-31l-1 -134c0,-1 0,-1 0,-2l-1 -178 4 0 3 314c0,21 -11,37 -25,38l0 0c-14,0 -25,-17 -25,-37z"/>
   <line class="fil2 str10" x1="305" y1="1198" x2="301" y2= "992" />
   <line class="fil2 str10" x1="366" y1="989" x2="199" y2= "994" />
   <line class="fil2 str10" x1="344" y1="964" x2="262" y2= "966" />
   <path class="fil11" d="M155 46l-3 315 0 0 -1 185c0,11 -10,19 -21,19l0 0c-12,0 -21,-9 -21,-20l1 -85c0,0 0,-1 0,-1l0 -72 0 0 2 -201c0,-13 -11,-23 -25,-24l0 0c-14,0 -25,11 -25,24l-4 491 4 0 3 -405c0,0 0,0 1,-1l0 -85c0,-11 10,-19 21,-19l0 0c12,0 21,9 21,20l-1 158 -1 0 -1 201c0,13 11,23 25,24l0 0c14,0 25,-11 25,-24l2 -200 0 0 2 -299c0,-17 9,-31 21,-31l0 0c11,0 21,14 21,31l-2 134c0,1 0,1 0,2l-1 178 4 0 3 -314c0,-21 -11,-37 -25,-38l0 0c-14,0 -25,17 -25,37z"/>
   <path class="fil12" d="M285 741l0 -201 -5 0 0 200c0,11 -11,20 -24,20l0 0c-13,0 -24,-9 -24,-20l0 -85c0,0 0,-1 0,-1l0 -72 0 0 0 -201c0,-13 -13,-23 -29,-23l0 0c-16,0 -29,10 -29,23l0 246 5 0 0 -159c0,0 0,-1 0,-1l0 -85c0,-11 11,-20 24,-20l0 0c13,0 24,9 24,20l0 158 0 0 0 201c0,13 13,23 29,23l0 0c16,0 29,-10 29,-23z"/>
   <path class="fil13 str10" d="M165 697l0 -62c0,-6 5,-11 12,-11l0 0c6,0 11,5 11,11l0 62c0,6 -5,11 -11,11l0 0c-7,0 -12,-5 -12,-11z"/>
   <polyline class="fil2 str10" points="177,708 177,928 297,928 297,954 "/>
  </g>
 </g>
</svg>
